<svg width="582" height="496" viewBox="0 0 582 496" fill="none" xmlns="http://www.w3.org/2000/svg">
<g clip-path="url(#clip0_1749_306)">
<path d="M316.383 145.968L301.677 181.767C299.556 186.945 294.494 190.341 288.894 190.341H139.343C133.743 190.341 128.709 193.709 126.56 198.916L95.3088 274.928C93.1877 280.106 88.1253 283.502 82.5256 283.502H48.9841C39.1422 283.502 32.4678 273.513 36.2009 264.429L89.2566 135.469C91.3777 130.29 96.44 126.895 102.04 126.895H303.6C313.442 126.895 320.116 136.884 316.383 145.968Z" fill="#FF7A57"/>
<path d="M428.46 135.468L413.754 171.267C410.021 180.351 416.695 190.34 426.537 190.34C436.379 190.34 443.053 200.33 439.32 209.414L351.083 424.007C348.962 429.186 343.899 432.581 338.3 432.581H39.7626C34.1629 432.581 29.1288 435.949 26.9795 441.156L12.2732 476.955C8.54007 486.039 15.2144 496.028 25.0563 496.028H375.631C381.231 496.028 386.265 492.661 388.414 487.454L528.802 145.996C532.535 136.911 525.861 126.922 516.019 126.922H441.243C435.644 126.922 430.61 130.289 428.46 135.497V135.468Z" fill="#FF7A57"/>
<path d="M580.954 19.0737L566.219 54.9004C564.098 60.0792 559.036 63.4468 553.436 63.4468H445.119C439.519 63.4468 434.485 66.8144 432.336 72.0215L313.724 360.532C311.603 365.711 306.541 369.106 300.941 369.106H13.8298C3.98788 369.106 -2.68649 359.117 1.04663 350.033L10.1532 327.846L15.7529 314.234C17.874 309.056 22.9363 305.66 28.536 305.66H263.638C269.238 305.66 274.272 302.292 276.421 297.085L395.061 8.57466C397.182 3.3959 402.245 0 407.844 0H568.199C578.041 0 584.715 9.98962 580.982 19.0737H580.954Z" fill="#343A40"/>
</g>
<defs>
<clipPath id="clip0_1749_306">
<rect width="582" height="496" fill="white"/>
</clipPath>
</defs>
</svg>
